<?xml version="1.0" encoding="UTF-8"?>
<svg width="25.328mm" height="24.725mm" version="1.1" viewBox="0 0 89.743676 87.606917" xmlns="http://www.w3.org/2000/svg">
 <g transform="translate(-366.56 -659.99)">
  <g transform="translate(-496.5 101.68)">
   <path d="m907.93 558.31a23 23 0 0 0 -23 23 23 23 0 0 0 17.82 22.352c-1.8036-1.8919-3.3226-4.0442-4.4883-6.3984 0.63466-0.86672 1.3829-1.6431 2.2246-2.3106 0.90726 2.0756 2.1166 4.0017 3.582 5.7188a26 26 0 0 1 -0.26367 -3.4687 26 26 0 0 1 24.787 -25.957 23 23 0 0 0 -20.662 -12.936zm21.549 15.895a23 23 0 0 0 -6.7812 1.123 23 23 0 0 0 -15.756 23.809c0.55542-1.0371 1.1769-2.0377 1.8692-2.9922 0.85215-1.155 1.7992-2.2375 2.8301-3.2363 1.0346 0.33092 2.0193 0.8008 2.9277 1.3965-1.7035 1.5124-3.1675 3.2681-4.3516 5.2051a26 26 0 0 1 11.232 -2.5918 26 26 0 0 1 24.314 16.824 23 23 0 0 0 5.916 -23.646 23 23 0 0 0 -22.201 -15.891zm-46.594 0.2344a23 23 0 0 0 -18.703 15.656 23 23 0 0 0 14.768 28.982 23 23 0 0 0 26.717 -9.9609c-2.3334 1.1124-4.8204 1.8827-7.3906 2.2617-0.63289-0.87179-1.1468-1.8254-1.5254-2.834 2.2959-0.22565 4.5405-0.79873 6.6602-1.6895a26 26 0 0 1 -21.48 -25.545 26 26 0 0 1 0.95508 -6.8711zm37.914 25.488a23 23 0 0 0 -8.2363 1.8262c2.5716 0.46657 5.0664 1.3117 7.3946 2.5274 6e-3 1.0784-0.13461 2.1523-0.41602 3.1934-2.003-1.1675-4.1681-2.0204-6.4199-2.5391a26 26 0 0 1 7.2891 17.982 26 26 0 0 1 -9.752 20.293 23 23 0 0 0 24.311 -1.6855 23 23 0 0 0 5.0879 -32.127 23 23 0 0 0 -19.258 -9.4707zm-8.9726 8.0469c0.33937 2.565 0.30379 5.1723-0.12889 7.7363-1.0276 0.33913-2.095 0.53888-3.1758 0.59179 0.50075-2.2762 0.64762-4.6115 0.44726-6.9258a26 26 0 0 1 -22.912 13.826 26 26 0 0 1 -14.277 -4.293 23 23 0 0 0 9.1133 22.615 23 23 0 0 0 32.125 -5.0879 23 23 0 0 0 -1.1914 -28.463z" fill="#f3574d"/>
   <path d="m913.14 590.36a3 3 0 0 0 -2.2988 1.2344 3 3 0 0 0 0.66406 4.1914 3 3 0 0 0 4.1895 -0.66407 3 3 0 0 0 -0.66407 -4.1914 3 3 0 0 0 -1.8906 -0.57031zm-14.059 2.4785a3 3 0 0 0 -1.6797 0.57031 3 3 0 0 0 -0.66407 4.1914 3 3 0 0 0 4.1914 0.66406 3 3 0 0 0 0.66406 -4.1914 3 3 0 0 0 -2.5117 -1.2344zm21.055 10.115a3 3 0 0 0 -2.9824 2.0703 3 3 0 0 0 1.9258 3.7812 3 3 0 0 0 3.7793 -1.9277 3 3 0 0 0 -1.9258 -3.7793 3 3 0 0 0 -0.79688 -0.14454zm-23 4.1211a3 3 0 0 0 -0.88476 0.14648 3 3 0 0 0 -1.9258 3.7793 3 3 0 0 0 3.7813 1.9277 3 3 0 0 0 1.9258 -3.7812 3 3 0 0 0 -2.8965 -2.0723zm12.971 6.2324a3 3 0 0 0 -3 3 3 3 0 0 0 3 3 3 3 0 0 0 3 -3 3 3 0 0 0 -3 -3z" fill="#fc0"/>
  </g>
 </g>
</svg>
